<svg width="28" height="28" viewBox="0 0 28 28" fill="none" xmlns="http://www.w3.org/2000/svg">
<path d="M20.3438 25.0526H6.78125V26.5263C6.78125 26.9172 6.63836 27.292 6.38401 27.5684C6.12967 27.8447 5.7847 28 5.425 28H4.06875C3.70905 28 3.36408 27.8447 3.10974 27.5684C2.85539 27.292 2.7125 26.9172 2.7125 26.5263V25.0526H1.35625V13.2632H0V7.36842H1.35625V2.94737C1.35625 2.16568 1.64203 1.416 2.15072 0.863264C2.65942 0.310525 3.34935 0 4.06875 0H23.0563C23.7757 0 24.4656 0.310525 24.9743 0.863264C25.483 1.416 25.7688 2.16568 25.7688 2.94737V7.36842H27.125V13.2632H25.7688V25.0526H24.4125V26.5263C24.4125 26.9172 24.2696 27.292 24.0153 27.5684C23.7609 27.8447 23.416 28 23.0563 28H21.7C21.3403 28 20.9953 27.8447 20.741 27.5684C20.4866 27.292 20.3438 26.9172 20.3438 26.5263V25.0526ZM23.0563 13.2632V2.94737H4.06875V13.2632H23.0563ZM23.0563 16.2105H4.06875V22.1053H23.0563V16.2105ZM5.425 17.6842H10.85V20.6316H5.425V17.6842ZM16.275 17.6842H21.7V20.6316H16.275V17.6842Z" fill="#0E539C"/>
</svg>
