<?xml version="1.0" encoding="UTF-8"?>
<svg id="_レイヤー_2" data-name="レイヤー 2" xmlns="http://www.w3.org/2000/svg" viewBox="0 0 76.09 39.17">
  <defs>
    <style>
      .cls-1 {
        fill: #4d7ab5;
      }

      .cls-2 {
        fill: #c8a1b9;
      }
    </style>
  </defs>
  <g id="_レイヤー_1-2" data-name="レイヤー 1">
    <g>
      <path class="cls-1" d="M4.17,2.91C-.25,5.33-1.43,12.03,1.95,15.87c3.99,4.52,10.57.86,16.15-3.06.31.24.62.49.93.75l1.48-2.02c.23-.21.4-.49.45-.79,1.25-.93,2.41-1.79,3.41-2.46.53,2.32.81,4.62.76,7l-1.48,2.03c.62.49,1.25.98,1.89,1.45.81.6,1.83-.12,1.94-.99.49-3.99,0-7.85-1.06-11.72-.21-.76-1.05-1.28-1.8-.86-1.75.96-3.41,2.12-5.05,3.32C15.51,3.98,10.57-.6,4.17,2.91ZM8.4,14.86c-4.63,1.22-7.55-3.54-5.16-7.74,1.55-2.71,5.51-3.52,8.26-2.46,2.45.96,4.33,3.22,6.05,5.31-.08.04-.14.09-.2.14-2.78,2.01-5.63,3.86-8.95,4.74Z"/>
      <path class="cls-2" d="M3.24,7.13c-2.39,4.19.53,8.95,5.16,7.74,3.32-.88,6.17-2.74,8.95-4.74.06-.05.13-.1.2-.14-1.72-2.09-3.6-4.35-6.05-5.31-2.75-1.07-6.71-.25-8.26,2.46Z"/>
      <path class="cls-1" d="M20.51,11.53l-1.48,2.02c1.54,1.25,3.05,2.53,4.61,3.76l1.48-2.03c-1.56-1.22-3.08-2.5-4.61-3.75Z"/>
      <path class="cls-2" d="M20.96,10.74c-.05.3-.22.58-.45.79,1.54,1.25,3.05,2.53,4.61,3.75.05-2.37-.23-4.67-.76-7-1,.67-2.16,1.53-3.41,2.46Z"/>
      <path class="cls-1" d="M30.83,23.55c-6.12.78-7.87,7.12-5.27,12.28,2.64,5.24,8.66,3.27,12.75,1.1,2.55-1.35,4.93-3.01,7.28-4.68,1.58,2.86,4.65,6.85,7.66,5.06,3.23-1.91.81-8.5.55-11.28-.07-.68-.87-1.09-1.48-.98-2.02.39-4.02,1.9-5.84,3.35-4.08-3.31-10.45-5.5-15.65-4.84ZM31,36.75c-5.46-.23-5.47-9.88.02-10.69,4.25-.62,9.98,1.22,13.46,3.92-.11.08-.23.17-.34.24-3.48,2.47-8.57,6.72-13.14,6.53ZM52.23,33.62c-1.05,2.56-3.41-.78-4.58-2.91,1.21-.99,2.57-2.13,3.93-2.77.44,1.9,1.18,4.37.65,5.68Z"/>
      <path class="cls-2" d="M31.01,26.06c-5.49.81-5.48,10.45-.02,10.69,4.56.19,9.66-4.05,13.14-6.53.11-.08.23-.16.34-.24-3.48-2.7-9.21-4.54-13.46-3.92Z"/>
      <path class="cls-1" d="M45.29,8.64c-.94,6.3,4.68,10.55,10.6,10.1,5.01-.38,8.63-3.47,11.93-6.97.02,0,.03.03.06.03,2.18,1.03,3.48,3.34,5.04,5.08.49.55,1.63.57,1.99-.17,1.89-3.9,1.51-9.53-1.23-12.94-.42-.52-1.32-.53-1.78-.08-1.17,1.12-2.27,2.35-3.36,3.58-3.32-3.36-7.59-6.33-12.18-7.12-5.67-.99-10.24,2.84-11.07,8.48ZM62.3,13.51c-4.97,3.75-16.35,3.93-14.35-5.15,2.37-10.72,13.42-4.35,18.88.84-1.41,1.55-2.87,3.05-4.54,4.31ZM70.32,9.2s-.05-.06-.08-.09c.76-.85,1.53-1.69,2.3-2.5,1.01,1.98,1.31,4.69.85,6.93-.91-1.09-1.8-2.13-2.89-3,.2-.4.2-.91-.18-1.34Z"/>
      <path class="cls-2" d="M47.95,8.36c-2.01,9.09,9.38,8.9,14.35,5.15,1.67-1.27,3.13-2.76,4.54-4.31-5.46-5.19-16.52-11.56-18.88-.84Z"/>
      <path class="cls-2" d="M47.65,30.71c1.17,2.13,3.53,5.47,4.58,2.91.54-1.31-.21-3.78-.65-5.68-1.37.64-2.73,1.78-3.93,2.77Z"/>
      <path class="cls-2" d="M70.24,9.11s.05.06.08.09c.38.44.38.94.18,1.34,1.1.86,1.99,1.9,2.89,3,.46-2.24.16-4.95-.85-6.93-.77.81-1.54,1.65-2.3,2.5Z"/>
    </g>
  </g>
</svg>