<svg width="45" height="45" viewBox="0 0 45 45" fill="none" xmlns="http://www.w3.org/2000/svg">
<path d="M24.3548 0C26.8391 0.006625 28.1001 0.019875 29.1888 0.0507917L29.6172 0.0662499C30.1119 0.0839166 30.5999 0.106 31.1895 0.1325C33.5392 0.242917 35.1425 0.613917 36.5492 1.15938C38.0067 1.72029 39.2345 2.47996 40.4623 3.70558C41.5857 4.80916 42.4547 6.14463 43.0086 7.61875C43.554 9.02546 43.925 10.6287 44.0354 12.9806C44.0619 13.568 44.084 14.056 44.1017 14.5529L44.1149 14.9813C44.148 16.0678 44.1613 17.3288 44.1657 19.8132L44.1679 21.4606V24.3535C44.1733 25.9643 44.1564 27.575 44.1171 29.1853L44.1039 29.6138C44.0862 30.1106 44.0641 30.5987 44.0376 31.1861C43.9272 33.538 43.5518 35.139 43.0086 36.5479C42.4547 38.022 41.5857 39.3575 40.4623 40.4611C39.3588 41.5845 38.0233 42.4534 36.5492 43.0073C35.1425 43.5528 33.5392 43.9238 31.1895 44.0342L29.6172 44.1004L29.1888 44.1137C28.1001 44.1446 26.8391 44.16 24.3548 44.1645L22.7073 44.1667H19.8166C18.2051 44.1724 16.5936 44.1554 14.9826 44.1159L14.5542 44.1026C14.0299 44.0828 13.5058 44.06 12.9818 44.0342C10.6322 43.9238 9.02892 43.5528 7.62001 43.0073C6.14667 42.4531 4.81198 41.5842 3.70905 40.4611C2.58489 39.3577 1.71516 38.0222 1.16063 36.5479C0.615173 35.1412 0.244173 33.538 0.133756 31.1861L0.067506 29.6138L0.0564646 29.1853C0.0157563 27.5751 -0.00264844 25.9643 0.00125609 24.3535V19.8132C-0.00485634 18.2024 0.0113398 16.5916 0.0498396 14.9813L0.0652979 14.5529C0.0829645 14.056 0.105048 13.568 0.131548 12.9806C0.241964 10.6287 0.612964 9.02767 1.15842 7.61875C1.71425 6.14402 2.5855 4.80851 3.71126 3.70558C4.81355 2.58275 6.14746 1.71383 7.62001 1.15938C9.02892 0.613917 10.63 0.242917 12.9818 0.1325C13.5693 0.106 14.0595 0.0839166 14.5542 0.0662499L14.9826 0.0529998C16.5929 0.0137639 18.2037 -0.00316829 19.8144 0.00220817L24.3548 0ZM22.0846 11.0417C19.1562 11.0417 16.3477 12.205 14.277 14.2757C12.2062 16.3464 11.0429 19.1549 11.0429 22.0833C11.0429 25.0118 12.2062 27.8203 14.277 29.891C16.3477 31.9617 19.1562 33.125 22.0846 33.125C25.013 33.125 27.8215 31.9617 29.8922 29.891C31.9629 27.8203 33.1263 25.0118 33.1263 22.0833C33.1263 19.1549 31.9629 16.3464 29.8922 14.2757C27.8215 12.205 25.013 11.0417 22.0846 11.0417ZM22.0846 15.4583C22.9546 15.4582 23.8161 15.6294 24.62 15.9622C25.4238 16.295 26.1542 16.7829 26.7695 17.398C27.3848 18.0131 27.8729 18.7433 28.206 19.547C28.539 20.3508 28.7105 21.2122 28.7107 22.0822C28.7108 22.9522 28.5396 23.8138 28.2068 24.6176C27.874 25.4214 27.3861 26.1518 26.7711 26.7671C26.156 27.3824 25.4257 27.8705 24.622 28.2036C23.8183 28.5367 22.9568 28.7082 22.0868 28.7083C20.3297 28.7083 18.6446 28.0103 17.4022 26.7679C16.1598 25.5255 15.4618 23.8404 15.4618 22.0833C15.4618 20.3263 16.1598 18.6412 17.4022 17.3988C18.6446 16.1563 20.3297 15.4583 22.0868 15.4583M33.6805 7.72917C32.9484 7.72917 32.2463 8.02 31.7286 8.53767C31.211 9.05535 30.9201 9.75748 30.9201 10.4896C30.9201 11.2217 31.211 11.9238 31.7286 12.4415C32.2463 12.9592 32.9484 13.25 33.6805 13.25C34.4127 13.25 35.1148 12.9592 35.6325 12.4415C36.1501 11.9238 36.441 11.2217 36.441 10.4896C36.441 9.75748 36.1501 9.05535 35.6325 8.53767C35.1148 8.02 34.4127 7.72917 33.6805 7.72917Z" fill="#0E539C"/>
</svg>
