<svg width="60" height="60" viewBox="0 0 60 60" fill="none" xmlns="http://www.w3.org/2000/svg">
<circle cx="30" cy="30" r="30" fill="#4182C4"/>
<path d="M38.8902 20.4507C36.2421 19.9929 33.535 20.3043 31.0216 21.356L30.5302 21.5702C27.4093 23.0072 24.0049 23.4612 20.6759 22.8843C19.2445 22.6329 17.8087 22.2516 16.5045 21.515C16.1789 21.3301 15.9277 21.011 15.8023 20.6229C15.6769 20.2348 15.6867 19.807 15.8296 19.4268C15.9726 19.0466 16.2379 18.7427 16.5715 18.5772C16.9051 18.4117 17.2817 18.397 17.6245 18.5362L17.7773 18.6092C18.8073 19.1787 19.9873 19.4805 21.1102 19.6768C23.7585 20.1336 26.4656 19.821 28.9787 18.7682L29.4702 18.5573C32.591 17.1203 35.9954 16.6663 39.3245 17.2432C40.7345 17.4898 42.2073 17.884 43.4959 18.6109C43.6638 18.706 43.8136 18.8379 43.9367 18.9988C44.0598 19.1598 44.1537 19.3467 44.2132 19.5489C44.2726 19.7511 44.2964 19.9646 44.2831 20.1773C44.2699 20.3899 44.2198 20.5975 44.1359 20.7882C43.9638 21.1695 43.6671 21.4592 43.3093 21.595C42.9515 21.7309 42.561 21.7022 42.2216 21.515C41.1816 20.9601 40.0187 20.647 38.8902 20.4507ZM38.8902 30.1853C36.2421 29.7274 33.535 30.0389 31.0216 31.0906L30.5302 31.3047C27.4093 32.7418 24.0049 33.1958 20.6759 32.6189C19.2445 32.3674 17.8087 31.9862 16.5045 31.2496C16.1789 31.0647 15.9277 30.7456 15.8023 30.3575C15.6769 29.9694 15.6867 29.5415 15.8296 29.1613C15.9726 28.7811 16.2379 28.4773 16.5715 28.3117C16.9051 28.1462 17.2817 28.1316 17.6245 28.2708L17.7773 28.3438C18.8073 28.9133 19.9873 29.2151 21.1102 29.4114C23.7585 29.8682 26.4656 29.5556 28.9787 28.5028L29.4702 28.2919C32.591 26.8549 35.9954 26.4009 39.3245 26.9777C40.7345 27.2243 42.2073 27.6186 43.4959 28.3454C43.6638 28.4406 43.8136 28.5724 43.9367 28.7334C44.0598 28.8943 44.1537 29.0813 44.2132 29.2835C44.2726 29.4857 44.2964 29.6992 44.2831 29.9118C44.2699 30.1245 44.2198 30.3321 44.1359 30.5227C43.9638 30.9041 43.6671 31.1937 43.3093 31.3296C42.9515 31.4655 42.561 31.4367 42.2216 31.2496C41.1816 30.6947 40.0187 30.3816 38.8902 30.1853ZM30.0073 41.2665L30.5302 41.0393C33.8173 39.5467 36.7659 39.5467 38.8902 39.9198C40.0187 40.1162 41.1816 40.4293 42.2202 40.9842C42.5596 41.1713 42.95 41.2 43.3078 41.0642C43.6657 40.9283 43.9624 40.6387 44.1345 40.2573C44.2184 40.0666 44.2684 39.859 44.2817 39.6464C44.2949 39.4338 44.2712 39.2202 44.2117 39.018C44.1523 38.8158 44.0584 38.6289 43.9353 38.468C43.8122 38.307 43.6624 38.1752 43.4945 38.08C42.2073 37.3532 40.7345 36.9589 39.3245 36.7123C36.1832 36.1691 32.9718 36.5432 29.993 37.7993L29.4702 38.0265C26.8232 39.2482 23.9348 39.635 21.1102 39.1459C20.1473 38.9772 19.1445 38.7322 18.2273 38.3071L17.7773 38.08C17.4399 37.904 17.0555 37.8841 16.7054 38.0245C16.3553 38.1648 16.0671 38.4545 15.9018 38.832C15.7366 39.2096 15.7072 39.6454 15.8199 40.0471C15.9327 40.4488 16.1787 40.7849 16.5059 40.9842C17.8087 41.7224 19.2445 42.1036 20.6759 42.3519C23.0802 42.7737 26.3616 42.7899 30.0073 41.2665Z" fill="white"/>
</svg>
