<svg width="28" height="41" viewBox="0 0 28 41" fill="none" xmlns="http://www.w3.org/2000/svg">
<g clip-path="url(#clip0_11_479)">
<path d="M14.0004 0C6.26672 0 0 6.17803 0 13.8023C0 21.4265 3.91193 23.2403 8.23568 28.4165C13.4074 34.6074 14.0004 41.0008 14.0004 41.0008C14.0004 41.0008 14.5934 34.6074 19.7651 28.4165C24.0889 23.2411 28.0008 21.5835 28.0008 13.8031C28.0008 6.17963 21.7341 0.000800781 14.0004 0.000800781V0ZM14.0004 18.5717C11.328 18.5717 9.16248 16.436 9.16248 13.8023C9.16248 11.1685 11.3288 9.03281 14.0004 9.03281C16.672 9.03281 18.8383 11.1685 18.8383 13.8023C18.8383 16.436 16.672 18.5717 14.0004 18.5717Z" fill="#0E539C"/>
</g>
<defs>
<clipPath id="clip0_11_479">
<rect width="28" height="41" fill="white"/>
</clipPath>
</defs>
</svg>
