<svg width="28" height="42" viewBox="0 0 28 42" fill="none" xmlns="http://www.w3.org/2000/svg">
<path d="M13.9992 -0.000385551C6.26775 -0.000385551 0 6.32948 0 14.1376C0 21.9456 3.91153 23.8064 8.23593 29.1079C13.4078 35.4503 14.0008 41.9996 14.0008 41.9996C14.0008 41.9996 14.5937 35.4503 19.7656 29.1079C24.0885 23.8064 28.0016 22.1071 28.0016 14.1376C28.0016 6.32791 21.7338 -0.00195312 14.0023 -0.00195312L13.9992 -0.000385551ZM13.9992 23.6276C8.81024 23.6276 4.6038 19.3795 4.6038 14.1391C4.6038 8.89873 8.81024 4.65061 13.9992 4.65061C19.1882 4.65061 23.3946 8.89873 23.3946 14.1391C23.3946 19.3795 19.1882 23.6276 13.9992 23.6276Z" fill="#E80000"/>
<path d="M16.0373 15.0135C15.1696 15.9917 14.3842 16.8679 13.6826 17.6439C13.6485 17.6784 13.6485 17.694 13.6655 17.7285C13.6826 17.7787 13.7152 17.7959 13.7493 17.7959H16.5045C16.655 17.7959 16.7218 17.8806 16.7047 18.0483L16.6209 19.2287C16.6209 19.398 16.5371 19.4811 16.3865 19.4811H10.7086C10.558 19.4811 10.4742 19.3964 10.4913 19.2287L10.5751 18.1502C10.5922 17.9982 10.6419 17.8633 10.7583 17.7458C11.8262 16.6673 13.0633 15.3348 14.4649 13.7829C15.3497 12.822 15.8013 11.9959 15.8169 11.3046C15.8836 10.0568 15.3497 9.41568 14.2476 9.38276C13.5957 9.36552 13.0959 9.53482 12.7109 9.90477C12.3431 10.2763 12.1258 10.781 12.059 11.4222C12.0419 11.5915 11.9581 11.6589 11.792 11.6589H10.156C10.0055 11.6589 9.92164 11.5742 9.93871 11.4065C10.0396 10.1916 10.4897 9.24795 11.2751 8.59114C12.0264 7.96725 13.0121 7.64746 14.2476 7.64746C15.3993 7.64746 16.3182 7.95157 16.9686 8.57546C17.636 9.2166 17.9542 10.1101 17.9201 11.2733C17.903 12.369 17.2682 13.634 16.0326 15.0166L16.0373 15.0135Z" fill="#E80000"/>
</svg>
