<svg width="29" height="43" viewBox="0 0 29 43" fill="none" xmlns="http://www.w3.org/2000/svg">
<path d="M14.4992 -0.000348228C6.4916 -0.000348228 0 6.48023 0 14.4742C0 22.4682 4.05122 24.3732 8.53007 29.801C13.8867 36.2944 14.5008 42.9997 14.5008 42.9997C14.5008 42.9997 15.1149 36.2944 20.4715 29.801C24.9488 24.3732 29.0016 22.6335 29.0016 14.4742C29.0016 6.47862 22.51 -0.00195312 14.5024 -0.00195312L14.4992 -0.000348228ZM14.4992 24.1903C9.1249 24.1903 4.76822 19.841 4.76822 14.4758C4.76822 9.11065 9.1249 4.76138 14.4992 4.76138C19.8735 4.76138 24.2302 9.11065 24.2302 14.4758C24.2302 19.841 19.8735 24.1903 14.4992 24.1903Z" fill="#E80000"/>
<path d="M15.7823 19.6868C15.7823 19.8601 15.6955 19.9452 15.5396 19.9452H13.8098C13.6538 19.9452 13.5847 19.8585 13.5847 19.7028L14.104 10.2933C14.104 10.2596 14.0702 10.2067 14.0348 10.173C13.9834 10.1553 13.9303 10.1553 13.8966 10.173L12.7375 10.8631C12.5992 10.9497 12.4786 10.9144 12.4095 10.7587L11.8565 9.67063C11.7874 9.53261 11.8211 9.41224 11.961 9.34323L14.0364 8.09944C14.157 8.03043 14.3129 7.99512 14.4866 7.99512H16.1987C16.3546 7.99512 16.4238 8.06413 16.4061 8.2198L15.7839 19.6836L15.7823 19.6868Z" fill="#E80000"/>
</svg>
