<svg width="28" height="42" viewBox="0 0 28 42" fill="none" xmlns="http://www.w3.org/2000/svg">
<g clip-path="url(#clip0_11_475)">
<path d="M13.9992 -0.000385551C6.26775 -0.000385551 0 6.32948 0 14.1376C0 21.9456 3.91153 23.8064 8.23593 29.1079C13.4078 35.4503 14.0008 41.9996 14.0008 41.9996C14.0008 41.9996 14.5937 35.4503 19.7656 29.1079C24.0885 23.8064 28.0016 22.1071 28.0016 14.1376C28.0016 6.32791 21.7338 -0.00195312 14.0023 -0.00195312L13.9992 -0.000385551ZM13.9992 23.6277C8.81024 23.6277 4.6038 19.3795 4.6038 14.1391C4.6038 8.89873 8.81024 4.65061 13.9992 4.65061C19.1882 4.65061 23.3946 8.89873 23.3946 14.1391C23.3946 19.3795 19.1882 23.6277 13.9992 23.6277Z" fill="#E80000"/>
<path d="M16.5649 13.7139C16.4314 13.8158 16.4314 13.9162 16.5308 14.0337C17.0989 14.6576 17.3488 15.4837 17.2991 16.4791C17.1485 18.5358 15.9471 19.5657 13.6592 19.5986C11.6895 19.5986 10.6029 18.6377 10.4027 16.7143C10.3686 16.545 10.4353 16.4619 10.6029 16.4619H12.1722C12.3057 16.4619 12.4066 16.5466 12.4392 16.7143C12.5556 17.473 12.9561 17.8445 13.6421 17.8445C14.6433 17.8617 15.1617 17.3727 15.2285 16.3773C15.2952 15.1624 14.7442 14.5557 13.5754 14.5557H12.7232C12.5556 14.5557 12.4889 14.4711 12.4889 14.319L12.5556 13.2735C12.5727 13.1214 12.6565 13.0368 12.8226 13.0368C13.3395 13.0368 13.6406 13.0368 13.7415 13.0195C14.426 12.9521 14.9274 12.7499 15.2114 12.4458C15.4955 12.1417 15.6615 11.6369 15.6786 10.9284C15.7283 9.84988 15.2611 9.30906 14.3267 9.27614C13.3581 9.24166 12.7745 9.71507 12.5727 10.6587C12.5401 10.828 12.4563 10.9111 12.3057 10.9111H10.6526C10.5021 10.9111 10.4353 10.8437 10.4524 10.6744C10.769 8.66793 12.0558 7.65527 14.3267 7.65527C15.362 7.65527 16.18 7.94214 16.7651 8.53155C17.3658 9.10528 17.667 9.91415 17.6499 10.9425C17.6328 12.2248 17.2665 13.1339 16.5649 13.7077V13.7139Z" fill="#E80000"/>
</g>
<defs>
<clipPath id="clip0_11_475">
<rect width="28" height="42" fill="white"/>
</clipPath>
</defs>
</svg>
