<svg width="359" height="353" viewBox="0 0 359 353" fill="none" xmlns="http://www.w3.org/2000/svg">
<path d="M189.27 0.412491C203.465 3.41157 206.379 18.1474 206.522 30.1956C206.647 40.9173 203.899 50.5259 199.814 60.4632C197.417 66.2999 194.015 69.9276 195.764 76.6928C198.137 85.8919 205.642 86.4225 213.331 89.3812C222.282 92.8244 230.162 99.6127 239.73 93.8049C245.957 90.0272 246.367 83.9022 248.913 77.8867C253.742 66.4556 271.785 41.9612 286.409 54.096C297.904 63.6411 283.447 83.4177 275.395 90.9385C267.681 98.1478 254.134 102.427 257.108 115.243C258.547 121.437 265.778 128.49 272.308 129.373C281.96 130.676 285.612 123.79 291.767 118.513C300.158 111.315 320.277 99.9357 330.161 109.798C334.55 114.176 334.473 119.793 331.915 125.082C326.884 135.498 308.77 138.733 315.133 153.983C320.491 166.821 334.473 161.226 345.052 164.029C353.224 166.192 360.979 171.36 358.546 180.697C355.436 192.642 340.313 192.417 330.577 193.772C319.581 195.301 313.628 207.066 319.76 216.248C321.758 219.247 324.69 220.487 326.046 224.224C328.769 231.745 324.333 238.285 317.167 241.14C312.052 243.176 306.426 242.467 301.734 245.495C294.039 250.46 292.076 272.302 298.505 278.646C301.8 281.899 304.791 281.945 308.805 283.595C320.545 288.41 334.514 300.73 322.84 313.055C312.171 324.313 292.255 311.14 284.19 302.46C277.31 295.049 273.587 283.208 261.687 283.733C255.133 284.027 251.69 288.232 246.992 291.905C242.311 295.568 238.077 297.194 236.382 303.538C233.825 313.107 241.538 317.484 245.761 324.63C250.108 331.989 255.585 347.902 244.666 351.581C232.552 355.659 229.365 350.364 226.819 343.103C225.44 339.164 225.142 323.453 220.878 318.568C213.884 310.557 208.033 308.516 202.454 312.951C195.413 318.545 201.705 328.252 187.051 331.851C177.435 334.215 170.614 327.15 167.218 319.387C163.822 311.624 150.733 304.213 138.084 308.452C130.442 311.013 120.694 315.933 117.358 329.319C114.236 341.834 99.3505 352.706 84.6851 339.591C74.9438 330.876 80.1356 320.201 90.6559 309.202C95.7169 303.913 109.466 285.579 96.1867 275.312C86.7011 267.976 65.8865 286.288 61.1289 291.657C53.1004 300.701 35.9432 312.432 24.6735 301.849C15.4735 293.209 21.1469 282.493 28.2239 274.69C35.3306 266.846 60.1119 252.064 52.7138 238.712C46.7192 227.898 35.2652 233.325 27.0167 226.433C21.7654 222.05 21.4146 213.993 25.8511 208.912C27.5698 206.945 30.0378 205.774 31.7624 203.831C36.9007 198.029 36.9007 189.141 31.1082 183.754C22.8597 176.089 6.53508 182.912 1.23032 170.483C-5.36494 155.032 16.1693 149.328 27.5222 148.394C33.9925 147.863 39.9991 149.657 45.6666 145.712C52.0061 141.294 53.8557 132.92 49.889 126.426C46.4992 120.883 42.4849 120.647 37.0434 118.12C23.4247 111.805 1.0757 93.9087 13.3504 77.7887C24.9531 62.551 47.4031 76.6698 57.186 87.0166C59.9038 89.8945 62.5443 93.3954 64.7685 96.6598C70.0375 104.394 72.2201 114.118 83.5254 114.821C91.1614 115.294 94.9913 110.225 100.231 105.974C105.47 101.724 110.656 99.6473 111.56 91.9535C112.719 82.0508 103.775 77.8809 97.9351 71.4906C91.6312 64.5927 80.0464 45.0987 91.7978 38.3969C103.686 31.6144 113.112 50.7912 115.223 59.4943C117.352 68.2781 114.872 79.4843 123.353 85.0441C131.28 90.2406 137.525 86.3764 145.666 84.6058C154.961 82.5872 166.748 83.7061 170.667 73.0536C172.975 66.7844 169.882 62.3607 168.14 56.6913C164.09 43.5069 162.318 29.9822 166.516 16.4691C169.627 6.45678 177.625 -2.03291 189.27 0.429793V0.412491Z" fill="#549FEB"/>
</svg>
