<?xml version="1.0" encoding="UTF-8"?>
<svg id="_レイヤー_2" data-name="レイヤー 2" xmlns="http://www.w3.org/2000/svg" viewBox="0 0 169.72 37.67">
  <defs>
    <style>
      .cls-1 {
        fill: #251e1c;
      }

      .cls-2 {
        fill: #154b97;
      }
    </style>
  </defs>
  <g id="_レイヤー_2-2" data-name="レイヤー 2">
    <g>
      <polygon class="cls-2" points="26.65 19.87 28.31 19.7 28.31 19.26 26.65 19.1 26.65 19.87"/>
      <polygon class="cls-2" points="21.65 21.28 23.73 21.07 23.73 20.62 21.65 20.42 21.65 21.28"/>
      <polygon class="cls-2" points="23.42 18.45 25.2 18.26 25.2 17.84 23.42 17.65 23.42 18.45"/>
      <polygon class="cls-2" points="12.07 33.9 12.79 33.98 12.56 36.16 13.34 36.24 13.57 34.06 14.28 34.13 14.35 33.47 12.14 33.24 12.07 33.9"/>
      <path class="cls-2" d="M16.14,34.56c-.25-.08-.25-.22-.25-.26,0-.09.03-.2.28-.2h0c.25,0,.5.07.75.19l.1.05v-.69s-.04-.02-.04-.02c-.24-.1-.53-.16-.85-.16-.32,0-.57.07-.74.22-.18.15-.27.35-.27.6,0,.23.07.43.22.59.15.16.38.29.71.39.1.03.18.07.22.12.04.04.05.09.05.16,0,.07-.02.13-.08.17-.06.04-.14.06-.26.06-.24,0-.47-.08-.69-.23l-.1-.07v.7s.03.02.03.02c.23.14.51.2.8.21h.02c.34,0,.61-.07.78-.21.19-.15.28-.36.28-.65,0-.24-.07-.44-.21-.6-.14-.15-.38-.28-.74-.39Z"/>
      <path class="cls-2" d="M20.16,33.27l-.76.07.18,1.84c.01.15,0,.26-.05.32-.05.06-.13.1-.25.11-.12.01-.21,0-.27-.06-.06-.05-.1-.16-.11-.31l-.18-1.84-.77.08.18,1.8c.06.66.41.99,1.02.99.06,0,.12,0,.19,0,.36-.04.63-.15.8-.35.17-.2.24-.48.2-.84l-.18-1.8Z"/>
      <path class="cls-2" d="M23.06,34.31c.11-.09.19-.19.24-.32.07-.17.09-.34.05-.51-.06-.28-.21-.46-.44-.55-.23-.09-.54-.09-.96,0l-.86.2.63,2.79.74-.17-.22-.98.12-.03c.09-.02.15-.02.2,0,.03.01.08.05.14.15l.44.7.78-.18-.5-.76c-.1-.16-.22-.28-.34-.35ZM22.09,34.18l-.14-.62.16-.04h0c.17-.04.29-.04.36,0,.07.03.11.09.14.19.02.11,0,.19-.06.27-.06.08-.18.14-.33.17l-.14.03Z"/>
      <rect class="cls-2" x="24.47" y="32.15" width=".83" height="2.86" transform="translate(-9.61 9.97) rotate(-19.07)"/>
      <path class="cls-2" d="M28.12,32.35c-.1-.04-.21-.05-.33-.05.06-.07.11-.15.14-.23.05-.15.04-.31-.03-.46-.1-.23-.27-.36-.51-.39-.23-.03-.53.04-.91.21l-.71.32,1.18,2.61.74-.33c.41-.18.67-.37.79-.58.13-.21.13-.46,0-.73-.08-.17-.2-.29-.37-.35ZM27.38,33.48l-.24-.53.1-.04c.17-.08.3-.11.39-.1.08,0,.13.05.17.13.05.1.05.19.01.26-.04.08-.14.15-.29.22l-.14.06ZM26.84,31.93c.17-.08.26-.08.31-.08.06,0,.1.05.13.12.03.07.03.14-.01.2-.05.07-.16.14-.32.22l-.05.02-.19-.42.13-.06Z"/>
      <rect class="cls-2" x="29.09" y="30.05" width=".83" height="2.86" transform="translate(-11.83 19.1) rotate(-30.18)"/>
      <polygon class="cls-2" points="32.04 28.82 31.64 28.29 29.86 29.62 30.26 30.15 30.83 29.72 32.15 31.48 32.77 31.01 31.46 29.25 32.04 28.82"/>
      <path class="cls-2" d="M34.96,26.94c-.33-.31-.68-.47-1.03-.47h0c-.35,0-.67.15-.95.45-.28.3-.41.63-.38.99.03.35.21.69.54.99.33.31.68.47,1.03.47h0c.35,0,.67-.15.95-.45.28-.3.41-.63.38-.99-.03-.35-.21-.69-.54-.99ZM34.22,28.65c-.16-.02-.35-.13-.55-.32-.2-.19-.32-.37-.36-.53-.03-.16.02-.3.14-.44.11-.12.23-.18.37-.18.18,0,.38.11.61.32.2.19.32.37.36.53.03.16-.01.3-.14.44-.13.14-.27.2-.42.17Z"/>
      <path class="cls-2" d="M37.89,21.67c-.05-.13-.12-.25-.19-.36-.07-.12-.14-.22-.24-.33l-.27.22c.25.38.44.86.41,1.29-.01.21-.09.41-.2.58-.12.17-.29.3-.48.42-.09.05-.19.1-.28.13-.05.02-.1.02-.14.04-.05,0-.1.01-.14.01-.19,0-.38-.04-.57-.13-.18-.09-.36-.22-.52-.37-.04-.04-.08-.08-.12-.12.53-.25.96-.63,1.34-1.18.05-.08.08-.17.07-.26-.16-1.25-.96-2.49-2.03-3.17-.06-.04-.13-.06-.2-.06-.05,0-.1,0-.14,0l-.04-.03s-.06-.04-.09-.06c-.06-.04-.12-.08-.18-.12-.12-.07-.25-.13-.39-.18-.27-.1-.58-.15-.88-.12-.28.03-.55.12-.78.25-.06-.1-.12-.19-.18-.29-.12-.21-.23-.41-.32-.63-.18-.42-.27-.86-.26-1.3.02-.44.14-.87.33-1.29.2-.42.45-.81.75-1.19l.11-.14.12-.14.24-.29c.16-.2.32-.4.48-.61.31-.42.59-.85.83-1.33.24-.47.44-.97.55-1.51.11-.53.14-1.09.05-1.64-.17-1.1-.77-2.09-1.57-2.81-.4-.36-.84-.66-1.31-.91-.46-.25-.95-.45-1.44-.62-.98-.34-1.99-.54-3-.68-1.01-.13-2.03-.2-3.04-.21-1.01-.02-2.02,0-3.03.06-.64.03-1.27.08-1.91.13-.89-1.26-1.57-2.04-2.09-2.35-1.03-.63-2.39-.34-3.71.07-1.89.59-4.3,1.56-5.73,2.31-1.05.55-1.56.96-1.76,1.75-.9.18-1.79.36-2.69.57l-.74.17-.73.18-.73.19c-.26.07-.38.1-1.06.32l6.29,19.57c-.39.14-.77.35-1.12.66-.08.07-.12.17-.12.27-.02,1.64.73,3.23,1.39,4.1.05.06.11.11.18.13.25.08.5.12.74.12s.48-.04.7-.09l2.39,6.98,1.34-.46-2.01-5.87c1.8.38,3.63.58,5.46.6,2.13.03,4.27-.18,6.36-.65,2.08-.47,4.12-1.2,5.99-2.27.93-.53,1.82-1.15,2.63-1.87.81-.72,1.54-1.54,2.13-2.46h0c.09-.14.09-.32,0-.46h0s-.16-.24-.16-.24l1.73-.69s.1.04.16.04c.02,0,.04,0,.06,0,.04,0,.08-.01.12-.02l.02.02c.05.05.1.1.15.15.1.1.21.19.32.28.22.18.47.33.76.44.28.11.6.16.92.12.08,0,.16-.03.23-.04.07-.02.15-.04.22-.08.14-.06.27-.14.39-.22.23-.17.45-.37.6-.64.15-.26.23-.57.22-.86,0-.29-.08-.57-.19-.82ZM35.79,21.53c-.43.56-.92.88-1.61,1.03-.32-.27-1.23-1.11-1.61-2.53.5-.56,1.17-.88,1.65-.92.8.54,1.4,1.47,1.57,2.42ZM31.19,18.52s.02.03.03.05c-.04.05-.08.09-.12.14-.18.23-.3.5-.36.78-.07.27-.08.55-.07.81.01.26.06.52.12.77.03.12.07.25.11.37.01.04.03.08.04.11l-.31.2-.06-.09c-.1-.15-.29-.21-.46-.15h0s0,0,0,0l-1.44.52-1.44.52-2.72.99c-.66-.29-1.33-.58-2-.85-.72-.3-1.45-.58-2.19-.85-.37-.13-.74-.26-1.11-.38-.17-.06-.34-.11-.51-.16.04-.16.08-.32.14-.48.06-.18.12-.36.18-.55.13-.37.24-.76.35-1.14.02-.08.02-.17-.01-.25-.08-.22-.32-.33-.53-.25h-.02s-.06.03-.06.03l-.08.03c-.05.02-.1.03-.16.05-.11.03-.22.06-.33.08-.22.05-.45.08-.68.1-.16.02-.33.03-.5.04-.06-.24-.11-.49-.14-.71-.01-.12-.02-.23,0-.33,0-.1.03-.18.05-.21.02-.04.02-.05.07-.07.02,0,.06-.02.1-.02,0,0,.1,0,.1,0h.1c.28-.02.57-.03.87-.06.3-.03.61-.08.91-.18.17-.05.33-.14.47-.23.14-.09.26-.2.38-.31.05-.04.09-.09.13-.14.88-.06,1.77-.07,2.66-.06.89.01,1.79.05,2.69.11.9.06,1.79.13,2.68.23.83.09,1.66.2,2.49.34.03.07.05.14.08.2.11.25.23.48.37.71.07.11.13.22.2.33ZM7.46,17.32c-.05.26-.08.52-.1.78l-.02.2v.08s-.04,0-.06,0c-.12-.01-.24-.03-.36-.05l-.73-.11c-.25-.04-.49-.08-.74-.12-.12-.02-.24-.03-.37-.05l-.26-.71c.32-.04.65-.08.98-.12.44-.05.88-.1,1.32-.15l.33-.04h.07c-.02.09-.04.19-.06.3ZM7.33,18.57h0s0,.02,0,.02c0,0,0,0,0,0h0s0-.02,0-.03ZM10.16,15.76c-.21-.2-.42-.4-.61-.61-.19-.21-.37-.43-.54-.66-.16-.23-.31-.46-.44-.7,1.81-.65,4.26-1.68,6.7-3.2.8-.5,1.59-.92,2.35-1.28,0,0,.02.01.02.02.03.02.06.04.09.06.06.04.11.07.17.11.11.07.22.12.34.17.23.1.45.18.69.23.23.06.46.1.69.12.08,0,.16.02.24.02,0,.09,0,.18,0,.28,0,.13.01.27.05.41.03.15.1.29.17.42.04.06.08.12.12.17.04.05.08.1.13.15.05.05.09.09.13.13l.13.12c.17.15.34.3.5.44.08.07.16.14.24.21.04.03.07.07.11.1l.05.05s.03.03.04.05c.04.05.07.1.07.15,0,.05,0,.09-.02.14-.02.05-.07.09-.14.13h-.02s-.03.03-.03.03c-.02,0-.04.02-.06.03-.04.02-.09.03-.13.04-.18.05-.39.07-.6.08v.44c.23,0,.46.01.71-.04.06-.01.13-.03.19-.05.03,0,.06-.02.09-.03l.04-.02.05-.02c.13-.06.27-.15.36-.29.1-.14.15-.31.14-.48,0-.17-.07-.33-.16-.46,0,0,0-.01-.01-.02.07-.12.15-.24.23-.35.14-.19.29-.38.44-.55.31-.35.67-.66,1.05-.86.19-.1.39-.16.58-.17.21-.02.44,0,.66.06.39.09.76.27,1.12.5,0,0,0,0-.01.01-.37.53-.7,1.07-1.01,1.63-.31.56-.59,1.12-.85,1.7-.13.29-.26.58-.38.87-.06.15-.12.29-.18.44-.04.09-.07.19-.11.28-.27-.02-.53-.04-.8-.06-.68-.04-1.36-.08-2.05-.08.05-.14.1-.29.12-.46l-.48-.08c-.05.22-.18.46-.33.67-.15.21-.33.41-.52.57-.19.16-.4.28-.61.32-.24.06-.5.08-.77.08-.27,0-.54,0-.83-.02h-.11s-.05,0-.05,0h-.03s-.02,0-.03,0c-.1,0-.21.01-.32.04-.11.03-.23.08-.34.16-.11.07-.2.17-.26.27-.14.2-.19.4-.22.59-.03.18-.04.35-.03.52,0,.23.03.44.06.65-.42-.02-.84-.06-1.25-.13-.23-.03-.47-.08-.7-.12-.23-.05-.46-.1-.68-.17-.9-.25-1.76-.65-2.57-1.13-.16-.1-.33-.2-.49-.3l.03-.75v-.23c0-.18-.02-.25-.11-.34ZM20.73,9.68s0,0,0,0c0,0,0,0,0,0h0s0,0,0,0ZM20.21,8.26c.03.12.06.24.09.36.06.22.14.45.24.66.02.05.05.11.08.16-.1,0-.2,0-.3-.01-.2-.02-.4-.04-.6-.08-.2-.04-.39-.1-.57-.17-.18-.07-.35-.16-.51-.26-.02-.01-.03-.02-.05-.03.57-.24,1.11-.44,1.62-.61ZM32.43,11.75c-.14.19-.29.39-.45.57l-.24.29-.12.15-.12.16c-.32.41-.6.86-.83,1.35-.22.49-.38,1.03-.39,1.6,0,.3.03.6.09.89-.75-.16-1.5-.3-2.25-.42-.9-.14-1.8-.27-2.7-.37-.26-.03-.52-.06-.77-.08,0,0,0,0,0,0,.05-.14.1-.29.15-.43.11-.29.22-.57.33-.85.23-.56.48-1.12.75-1.66.27-.54.57-1.07.89-1.58.32-.51.68-.99,1.08-1.43.4-.43.84-.82,1.34-1.08.25-.13.51-.23.77-.27.07-.01.13-.02.2-.03.07,0,.13,0,.2-.01.14,0,.28,0,.42.02.55.07,1.08.31,1.54.67.37.28.69.62.98.99-.05.11-.1.21-.15.31-.21.42-.47.82-.75,1.21ZM21.19,3.48c.99-.06,1.98-.09,2.96-.08.99.01,1.97.07,2.94.19.97.13,1.93.32,2.84.62.91.31,1.77.74,2.45,1.36.34.31.63.66.86,1.05.11.2.21.4.29.61.08.21.13.43.17.65.1.57.03,1.16-.14,1.73-.25-.31-.52-.6-.83-.86-.25-.21-.53-.4-.84-.55-.3-.15-.63-.26-.97-.32-.17-.03-.34-.05-.51-.05-.09,0-.18,0-.26,0-.09,0-.18.01-.26.03-.35.05-.68.16-.99.3-.62.29-1.14.72-1.6,1.18-.36.36-.68.74-.97,1.14-.34-.3-.73-.56-1.18-.73-.26-.1-.54-.17-.84-.19-.32-.02-.63.05-.9.15-.28.1-.53.24-.76.4-.23.16-.45.33-.65.51-.2.18-.4.38-.58.58-.06.06-.11.13-.17.2-.06-.06-.12-.12-.18-.18-.07-.08-.15-.15-.2-.22-.03-.03-.05-.07-.08-.11l-.03-.05s-.02-.03-.03-.05c-.03-.07-.05-.13-.06-.2,0-.07-.01-.15,0-.24,0-.09.02-.19.03-.29.04,0,.08,0,.12,0h.08s.04-.01.04-.01c0,0,0,0,.04,0,.02,0,.04,0,.07-.01.05-.01.1-.04.15-.08.05-.04.08-.09.1-.14.04-.1.04-.19.02-.25,0-.03-.02-.06-.03-.09,0-.01-.01-.03-.02-.04v-.03s-.05-.07-.05-.07c-.05-.09-.1-.18-.13-.27-.14-.31-.21-.65-.21-.99,1.74-.54,2.92-.68,2.94-.68.2-.02.37-.18.4-.38.04-.2-.06-.4-.25-.5l-3.25-1.66-.86-1.22s-.02-.03-.03-.04c.46-.04.92-.08,1.38-.1ZM7.13,11.31s.07-.02.11-.04c.07-.02.14-.05.2-.07.07-.02.13-.05.2-.08.26-.1.51-.21.76-.33.5-.23.98-.48,1.45-.75l.35-.2.35-.21c.23-.14.46-.28.69-.42l1.34-.86c.89-.56,1.8-1.08,2.75-1.54.09-.04.18-.09.28-.13l.29-.13c.77-.35,1.55-.66,2.36-.9l-.09-.34c-1.05.24-2.07.59-3.06.99-1,.41-1.96.88-2.91,1.39l-1.39.77c-.23.12-.46.25-.7.36l-.35.18-.35.17c-.47.22-.95.43-1.43.62-.24.09-.48.18-.72.26-.04.01-.09.03-.13.04-.04-.58-.11-1.36-.18-2.13-.16-1.71-.24-2.7-.08-3.27.13-.45.43-.67,1.28-1.11,1.38-.72,3.73-1.67,5.57-2.25.69-.22,1.39-.4,1.99-.4.36,0,.69.07.96.23.28.17.97.79,2.41,2.98,0,0,0,0,0,.01l.93,1.32c.04.06.1.11.17.15l2.13,1.09c-1.63.37-4.51,1.22-7.53,3.1-3.38,2.1-6.86,3.27-8.42,3.73l.77-2.22ZM1.36,6.74l.71-.2.72-.19.72-.18c.77-.19,1.55-.37,2.33-.54,0,.62.07,1.39.17,2.41.12,1.27.21,2.58.24,2.94l-1.07,3.07c-.06.16-.02.34.09.46.09.1.21.15.34.15.04,0,.07,0,.11-.01.08-.02.83-.2,2-.59.19.32.41.62.64.91.2.24.42.47.64.69.06.06.12.11.19.17-.05,0-.1,0-.14,0h-.4s-.05-.05-.05-.05c-.04-.04-.08-.08-.11-.12h0s-.09-.08-.14-.1c-.19-.07-.41.02-.49.22,0,.02-.01.04-.02.06l-.8.02c-.45,0-.89.02-1.34.04-.4.01-.93.08-1.36.12L1.01,6.84c.12-.03.24-.07.36-.1ZM6.97,29.98c-.58-.81-1.14-2.12-1.17-3.37.68-.53,1.54-.64,2.26-.65.29.36,1.13,1.54,1.14,3.33-.38.31-1.36.91-2.24.69ZM29.66,26.5c-.77.67-1.61,1.24-2.5,1.74-1.79,1-3.75,1.68-5.76,2.12-2.01.43-4.08.61-6.14.57-1.98-.04-3.96-.3-5.88-.78l-.02-.06c.21-.14.37-.27.48-.37.07-.07.12-.17.12-.27.05-2.58-1.39-4.09-1.46-4.16-.07-.07-.17-.11-.27-.11-.13,0-.32,0-.55.01l-2.22-6.12c.2.02.4.03.61.05l.74.08c.12.01.25.02.38.03.06,0,.13,0,.2.01.03,0,.07,0,.11,0h.06s.05,0,.08,0h0c.07,0,.13-.03.19-.07h.02s.01-.02.01-.02l.02-.02s.02-.02.03-.03c.02-.02.04-.04.06-.06.04-.05.08-.1.12-.17.04-.07.06-.16.07-.27v-.1s0-.18,0-.18v-.18c.02-.24.04-.48.07-.71.03-.24.08-.47.13-.71,0-.04.02-.07.03-.11.03.03.06.06.09.08.19.17.38.33.58.49.39.31.8.61,1.23.88.86.53,1.79.95,2.77,1.23.24.07.49.13.74.18.25.05.49.09.74.13.5.08,1,.13,1.5.15.51.02,1.01,0,1.52-.04.25-.03.51-.06.76-.12,0,0,0,0,.01,0-.04.13-.08.25-.12.38-.06.18-.13.36-.19.56-.06.19-.12.39-.17.59l-.02.08v.04s-.02.06-.02.1c-.01.13.02.26.08.38.06.11.16.21.28.27.03.01.06.03.09.04h.04s.07.03.07.03c.18.06.37.12.55.18.37.12.73.25,1.09.37.72.26,1.44.54,2.15.83.71.3,1.42.6,2.14.91h0c.09.04.2.05.31,0l2.87-1.06,1.44-.53,1.14-.43,1.41,2.11c-.52.75-1.15,1.44-1.84,2.04ZM31,22.27l.5-.34.22-.15-.11-.24h0s-.04-.1-.05-.15c-.02-.05-.03-.1-.05-.16-.03-.11-.06-.21-.08-.32-.04-.22-.07-.43-.07-.64,0-.42.1-.82.34-1.1.12-.14.27-.26.44-.35.17-.09.34-.14.51-.15.13,0,.26.01.39.05-.44.24-.85.58-1.18.99-.07.09-.1.21-.07.32.29,1.29.97,2.2,1.47,2.72l-1.43.75-.83-1.21Z"/>
      <path class="cls-2" d="M17.5,12.15c.05.05.11.09.17.11.06.03.13.05.21.05h.05c.15,0,.28-.06.38-.16.07-.07.11-.15.14-.24,0-.05.01-.1.02-.14,0-.07-.01-.14-.05-.21-.02-.07-.06-.13-.11-.17-.05-.05-.11-.09-.17-.11-.06-.03-.13-.05-.21-.05h-.05c-.15,0-.28.06-.38.16-.07.07-.11.15-.14.24,0,.05-.01.1-.02.14,0,.07.01.14.05.21.02.07.06.13.11.17Z"/>
      <path class="cls-2" d="M17.82,14.39c.37.23.79.37,1.21.41.42.04.84-.01,1.23-.16l-.15-.47c-.65.15-1.36-.03-1.83-.43l-.46.65Z"/>
    </g>
    <g>
      <g>
        <path class="cls-1" d="M48.7,10.61c-.27-.03-.56-.04-.93-.04h-3.61c-.34,0-.67.02-.93.04v-.81c.27.03.53.04.93.04h3.61c.41,0,.7-.01.93-.04v.81Z"/>
        <path class="cls-1" d="M50.05,10.11s.04,0,.06,0c.04,0,.18,0,.39-.03,0-.31.01-.61.01-.84,0-.72-.01-.97-.05-1.21.15.02.28.03.44.03h.2c.13-.25.22-.49.25-.67l.67.1c-.11.24-.2.41-.29.57h.36c.2,0,.36,0,.49-.03-.02.14-.02.23-.02.38v1.38s.08-.01.15-.03v.56c-.08.02-.11.03-.15.04v2.08c0,.28-.04.39-.19.49-.1.06-.25.1-.49.1-.13,0-.27,0-.48-.03-.01-.25-.02-.29-.12-.62.32.05.43.06.6.06.1,0,.13-.02.13-.13v-1.85s-.06,0-.22.03c-.02,0-.03,0-.04,0v.95c0,.3,0,.41.02.55h-.53c.03-.16.03-.27.03-.55v-.88l-.24.04c-.04,1.14-.2,1.84-.54,2.48q-.19-.23-.51-.5c.19-.27.32-.6.39-1.05.04-.22.08-.61.09-.85-.22.03-.36.05-.39.06l-.09-.65h.06ZM51.07,9.01c0,.48,0,.6-.01,1.03.3-.03.7-.09.96-.13v-1.31h-.95v.41ZM51.56,8.76c.18.3.25.48.37.81l-.46.23c-.09-.34-.18-.57-.34-.85l.43-.19ZM55.4,10.38c-.03.05-.08.15-.11.24-.18.46-.45.91-.76,1.27.32.25.65.41,1.15.57-.12.15-.23.37-.35.65-.47-.19-.87-.43-1.24-.76-.34.31-.62.5-1.12.75-.1-.22-.15-.29-.4-.58.51-.21.77-.36,1.09-.63-.3-.37-.43-.62-.67-1.25-.05,0-.07,0-.15.02v-.61c.1.02.22.03.43.03h1.42c.23,0,.35,0,.43-.03l.3.35ZM53.73,8.24c-.03.79-.21,1.26-.63,1.64-.15-.22-.25-.34-.45-.5.37-.27.51-.64.51-1.36,0-.16-.01-.26-.03-.36.18.02.34.03.5.03h.73c.23,0,.36,0,.53-.03-.01.14-.02.29-.02.51v.91c0,.09.02.11.11.11.13,0,.17-.01.19-.07.03-.08.04-.27.06-.63.19.13.29.17.5.23-.08.93-.15,1.02-.77,1.02-.58,0-.67-.05-.67-.39v-1.1h-.55ZM53.61,10.62c.11.24.18.4.22.48.08.13.16.25.25.36.28-.34.35-.44.53-.84h-1Z"/>
        <path class="cls-1" d="M58.41,12.51c0,.29,0,.44.04.62h-.74c.03-.18.04-.35.04-.63v-1.53c-.25.22-.37.32-.68.52-.08-.24-.18-.46-.31-.63.43-.25.72-.48,1.05-.83.29-.3.46-.55.66-.94h-.99c-.22,0-.36,0-.51.03v-.68c.16.02.28.03.48.03h.31v-.51c0-.17-.01-.32-.04-.46h.73c-.03.13-.03.28-.03.47v.5h.25c.18,0,.25,0,.35-.02l.29.32c-.05.08-.09.16-.13.26-.2.44-.31.63-.61,1.04.29.32.56.55.96.77-.14.2-.23.36-.33.6-.32-.2-.51-.37-.79-.69v1.76ZM61,12.22h.73c.3,0,.51-.01.7-.03v.73c-.22-.03-.45-.04-.7-.04h-2.08c-.25,0-.48.01-.69.04v-.73c.19.02.41.03.69.03h.67v-2.38h-.46c-.2,0-.41.01-.6.03v-.69c.17.03.34.03.6.03h.46v-1.07c0-.25-.01-.4-.04-.63h.76c-.03.24-.04.36-.04.63v1.07h.64c.28,0,.44,0,.6-.03v.69c-.2-.02-.39-.03-.6-.03h-.64v2.38Z"/>
        <path class="cls-1" d="M63.73,13.11c.03-.19.04-.41.04-.79v-3.87c0-.28-.01-.51-.04-.73.22.03.41.03.72.03h3.8c.31,0,.5,0,.72-.03-.03.24-.03.42-.03.73v3.88c0,.37.01.62.04.79h-.7v-.34h-3.85v.34h-.7ZM64.43,12.18h3.85v-3.85h-3.85v3.85ZM66.78,8.91c0-.22,0-.32-.03-.44h.7c-.03.12-.03.22-.03.44v.23h.17c.19,0,.39-.01.5-.03v.63c-.13-.02-.31-.03-.51-.03h-.15v1.71c0,.49-.17.61-.84.61-.16,0-.2,0-.57-.03-.04-.3-.06-.38-.16-.61.34.04.56.06.74.06.15,0,.2-.04.2-.16v-1.59h-1.52c-.25,0-.41,0-.56.03v-.63c.15.02.29.03.56.03h1.52v-.23ZM65.75,11.28c-.25-.53-.4-.77-.72-1.15l.51-.34c.36.43.49.62.77,1.13l-.56.36Z"/>
        <path class="cls-1" d="M70.63,9.02c.42.24.63.39,1.09.75l-.38.55c-.4-.36-.67-.56-1.09-.81l.38-.49ZM71.72,11.1c-.22.57-.36.88-.6,1.39q-.1.22-.19.41t-.07.15l-.58-.51c.21-.22.58-.98.9-1.83l.55.39ZM70.93,7.53c.43.26.66.44,1.04.78l-.41.53c-.33-.33-.63-.58-1.04-.84l.41-.47ZM71.7,12.22c.09,0,.14,0,.2,0,.11,0,.27,0,.45-.02.32-.55.56-1.1.76-1.68h-.65c-.25,0-.47.01-.66.04v-.69c.18.03.37.04.67.04h.95v-.91h-.73c-.24,0-.45.01-.65.03v-.67c.16.03.37.04.65.04h.72v-.26c0-.34,0-.48-.03-.64h.72c-.03.2-.03.31-.03.64v.26h.98c.27,0,.44-.01.62-.04v.67c-.17-.03-.34-.03-.62-.03h-.98v.91h1.17c.25,0,.45-.01.63-.04v.69c-.18-.03-.41-.04-.63-.04h-1.43q-.24.65-.41,1.02c-.02.05-.12.25-.3.62.74-.06,1.23-.13,1.62-.2-.17-.29-.29-.46-.6-.86l.55-.28c.51.67.66.9,1.22,1.88l-.59.36c-.13-.27-.17-.35-.28-.56-.86.17-1.11.2-2.2.32-.69.07-.8.08-.99.12l-.13-.7Z"/>
        <path class="cls-1" d="M80.26,7.58c-.02.1-.04.4-.04.63,0,.99.16,1.62.6,2.41.25.45.53.77.96,1.15.36.31.55.44.94.65-.23.24-.33.39-.47.68-.74-.51-1.12-.87-1.55-1.43-.37-.5-.6-.97-.81-1.67-.12.49-.23.77-.48,1.23-.24.44-.51.77-.93,1.17-.32.29-.52.44-.95.7-.14-.29-.26-.44-.48-.63.63-.34.95-.58,1.33-1.02.79-.9,1.12-1.9,1.12-3.36,0-.23,0-.35-.03-.51h.79Z"/>
      </g>
      <g>
        <path class="cls-2" d="M54.33,17.14v2.85h-3.9v11.86h-3.5v-11.86h-3.9v-2.85h11.29Z"/>
        <path class="cls-2" d="M67.9,20.64c-1.4-.71-2.81-1.06-4.23-1.06-1.25,0-1.87.49-1.87,1.46,0,.83.54,1.41,1.61,1.75,1.86.56,3.15,1.22,3.87,1.98.71.75,1.07,1.74,1.07,2.96,0,2.89-1.82,4.33-5.45,4.33-1.56,0-2.95-.35-4.17-1.04v-2.91c1.26.85,2.58,1.28,3.95,1.28.72,0,1.27-.14,1.63-.41.37-.28.55-.67.55-1.18,0-.45-.13-.81-.38-1.09-.26-.28-.7-.52-1.33-.72-1.69-.54-2.92-1.21-3.67-2.01-.75-.8-1.13-1.78-1.13-2.93,0-1.26.44-2.26,1.32-2.99.88-.73,2.14-1.1,3.78-1.1s3.19.27,4.45.81v2.89Z"/>
        <path class="cls-2" d="M76.55,17.14v9.62c0,.92.17,1.57.52,1.96.35.39.91.58,1.69.58s1.34-.19,1.69-.58c.35-.39.52-1.04.52-1.96v-9.62h3.38v9.39c0,3.69-1.88,5.53-5.64,5.53s-5.64-1.84-5.64-5.53v-9.39h3.46Z"/>
        <path class="cls-2" d="M92.61,26.43v5.43h-3.36v-14.72h4.43c2.24,0,3.87.35,4.88,1.04,1.01.7,1.52,1.74,1.52,3.15,0,.89-.27,1.7-.8,2.43s-1.22,1.24-2.08,1.52v.04c.71.39,1.28,1.19,1.71,2.4l1.55,4.13h-3.52l-1.4-3.99c-.18-.56-.41-.94-.68-1.14-.27-.2-.69-.3-1.25-.3h-1ZM93.87,19.76h-1.26v4.15h1.12c.94,0,1.67-.2,2.16-.59.5-.39.75-.94.75-1.63s-.21-1.16-.64-1.47c-.43-.31-1.14-.46-2.13-.46Z"/>
        <path class="cls-2" d="M106.08,31.86v-14.72h3.76v14.72h-3.76Z"/>
        <path class="cls-2" d="M126.66,27.53c0,1.5-.51,2.59-1.52,3.29-1.01.7-2.68,1.04-5,1.04h-4.03v-14.72h3.82c2.2,0,3.8.31,4.78.92.98.62,1.48,1.53,1.48,2.75,0,.83-.27,1.52-.81,2.1-.54.57-1.28.94-2.22,1.11v.04c1.08.13,1.93.52,2.56,1.15.63.64.94,1.41.94,2.31ZM119.48,22.97h.67c1.04,0,1.78-.13,2.24-.4.46-.27.69-.69.69-1.25s-.19-.93-.56-1.18c-.37-.25-1.01-.37-1.9-.37h-1.14v3.21ZM119.48,25.42v3.84h1.2c.97,0,1.68-.16,2.12-.49.44-.33.66-.86.66-1.59,0-.6-.23-1.05-.7-1.33-.47-.28-1.24-.42-2.33-.42h-.94Z"/>
        <path class="cls-2" d="M131.73,31.86v-14.72h3.76v14.72h-3.76Z"/>
        <path class="cls-2" d="M152.29,17.14v2.85h-3.9v11.86h-3.5v-11.86h-3.9v-2.85h11.29Z"/>
        <path class="cls-2" d="M167.87,30.05c-1.23,1.34-2.91,2.01-5.04,2.01s-3.8-.67-5.04-2.01c-1.23-1.34-1.85-3.19-1.85-5.55s.62-4.21,1.85-5.55c1.23-1.34,2.91-2.01,5.04-2.01s3.8.67,5.04,2.01c1.23,1.34,1.85,3.19,1.85,5.55s-.62,4.21-1.85,5.55ZM166.21,24.5c0-3.15-1.13-4.72-3.38-4.72s-3.38,1.58-3.38,4.73,1.13,4.73,3.38,4.73,3.38-1.58,3.38-4.74Z"/>
      </g>
    </g>
  </g>
</svg>