<svg width="375" height="441" viewBox="0 0 375 441" fill="none" xmlns="http://www.w3.org/2000/svg">
<path d="M-62.78 338.954C-62.9684 339.161 -63.0668 339.434 -63.0537 339.714C-63.0406 339.993 -62.917 340.256 -62.7102 340.445C-62.5033 340.633 -62.2301 340.731 -61.9506 340.718C-61.6712 340.705 -61.4083 340.582 -61.22 340.375C-61.22 340.375 -61.22 340.375 -61.22 340.375C-57.4481 336.279 -53.5394 332.121 -49.0263 329.165C-49.0249 329.164 -49.0236 329.163 -49.0222 329.163C-45.478 326.978 -40.8591 326.761 -36.4704 326.839C-25.2045 327.272 -13.9573 329.588 -2.74141 331.704C-2.73852 331.705 -2.73564 331.705 -2.73276 331.706C10.9384 334.289 25.0181 338.618 39.5355 336.213C39.5547 336.21 39.5739 336.207 39.5931 336.204C46.939 335.034 53.0074 330.793 58.7117 326.968C58.7236 326.959 58.7355 326.951 58.7473 326.943C70.8259 318.799 80.2619 307.43 88.1031 295.46C88.108 295.453 88.1129 295.445 88.1178 295.438C95.2397 284.285 100.439 272.288 106.562 260.913C106.572 260.895 106.582 260.877 106.592 260.859C110.621 253.468 115.15 246.457 121.557 241.119C121.579 241.1 121.601 241.081 121.622 241.062C127.994 235.697 136.485 232.786 144.679 229.997C144.713 229.986 144.746 229.975 144.78 229.964C157.829 226.343 172.252 227.494 186.213 227.171C186.25 227.171 186.288 227.171 186.326 227.17C194.232 227.168 202.422 225.643 209.594 222.184C209.629 222.168 209.663 222.153 209.697 222.138C218.349 217.718 224.708 211.109 231.465 204.965C231.497 204.935 231.53 204.904 231.562 204.874C241.641 193.857 247.447 180.938 254.871 168.825C254.896 168.782 254.921 168.739 254.946 168.696C262.638 155.094 275.906 145.644 290.642 140.439C290.676 140.426 290.709 140.414 290.742 140.401C297.594 137.826 305.273 138.72 312.932 139.516C312.949 139.518 312.966 139.52 312.983 139.521C328.162 140.788 342.606 146.727 358.845 146.404C358.884 146.4 358.922 146.396 358.96 146.392C373.05 143.508 381.738 132.732 391.235 124.086C391.26 124.062 391.284 124.038 391.308 124.015C397.301 118.192 403.288 112.281 409.942 107.544C413.343 105.157 416.981 103.307 420.964 102.564L420.779 102.589C420.788 102.588 420.796 102.588 420.805 102.587C424.485 102.326 428.258 102.213 431.971 102.209C431.974 102.209 431.977 102.209 431.98 102.209C434.059 102.212 436.031 102.291 438.079 102.543C438.487 102.59 438.898 102.472 439.219 102.216C439.541 101.96 439.747 101.586 439.793 101.178C439.84 100.77 439.722 100.36 439.466 100.038C439.21 99.7169 438.837 99.5101 438.428 99.4637C438.428 99.4637 438.428 99.4637 438.428 99.4637C436.319 99.2 434.102 99.1092 431.991 99.1061C431.987 99.106 431.984 99.106 431.981 99.106C428.167 99.106 424.4 99.1865 420.57 99.4524C420.561 99.4531 420.552 99.4538 420.542 99.4544L420.358 99.4795C415.893 100.298 411.715 102.434 408.137 104.949C401.102 109.951 395.122 115.878 389.078 121.743C389.054 121.767 389.029 121.791 389.005 121.815C379.766 130.4 370.463 141.087 358.631 143.349C358.6 143.352 358.569 143.356 358.537 143.359C343.838 143.718 328.789 137.831 313.272 136.486C313.255 136.485 313.239 136.483 313.222 136.481C305.685 135.721 297.45 134.628 289.669 137.525C289.635 137.537 289.601 137.55 289.567 137.563C274.491 142.846 260.306 152.894 252.283 167.133C252.258 167.176 252.233 167.219 252.207 167.261C244.859 179.304 238.571 192.592 229.398 202.57C229.366 202.6 229.334 202.63 229.302 202.66C222.657 208.745 216.059 215.418 208.413 219.311C208.379 219.326 208.346 219.341 208.312 219.357C201.425 222.685 193.952 224.113 186.297 224.159C186.259 224.159 186.221 224.16 186.184 224.16C172.179 224.561 158.04 223.331 143.874 227.217C143.841 227.228 143.807 227.239 143.773 227.251C135.461 230.109 126.838 232.855 119.668 238.841C119.646 238.86 119.624 238.879 119.602 238.899C112.905 244.47 108.066 251.974 104.003 259.449C103.993 259.468 103.982 259.486 103.972 259.505C97.7771 271.027 92.4879 282.984 85.5782 293.767C85.5734 293.774 85.5685 293.781 85.5637 293.789C77.8194 305.581 68.6499 316.563 57.0193 324.405C57.0079 324.413 56.9964 324.421 56.9849 324.428C51.2874 328.269 45.5845 332.208 39.1021 333.259C39.085 333.262 39.0678 333.265 39.0506 333.268C25.4338 335.647 11.6206 331.637 -2.24324 329.126C-2.24614 329.126 -2.24904 329.125 -2.25194 329.125C-13.5436 327.111 -24.8152 324.99 -36.4285 324.655C-40.9668 324.643 -45.8735 324.787 -50.1385 327.372C-50.14 327.373 -50.1416 327.374 -50.1431 327.375C-55.0675 330.614 -58.9379 334.798 -62.78 338.954Z" fill="white"/>
<path d="M67.8 280.892C67.6237 280.897 67.8478 279.354 69.9684 274.213C73.9759 264.497 83.6993 252.506 95.4722 239.2C108.087 224.942 119.34 219.057 123.853 216.767C137.118 210.039 154.796 210.06 165.814 209.946C175.047 208.631 182.023 205.808 189.894 200.53C192.129 198.716 194.809 196.353 199.367 192.138" stroke="white" stroke-width="3" stroke-linecap="round" stroke-dasharray="6 6"/>
<path d="M252.049 210.23C252.368 209.268 256.746 202.735 264.82 189.804C271.157 179.654 281.083 172.306 286.714 168.947C293.649 164.81 318.621 168.761 335.158 169.125C337.678 168.724 340.189 168.142 341.995 167.65C343.801 167.158 344.825 166.772 345.896 166.307" stroke="white" stroke-width="3" stroke-linecap="round" stroke-dasharray="5 5"/>
</svg>
